<svg xmlns="http://www.w3.org/2000/svg" viewBox="0 0 278.13 272.17"><path d="M277,128.83c1.74-2.43,1.52-3.6-1.08-5.27C244.43,103.46,213,83.2,181.56,63.09a5.35,5.35,0,0,1-2.83-5.31c.14-9.53.06-19.06.06-28.59,0-7,0-7,7.08-7a6.68,6.68,0,0,1,1,0c1.93.26,2.47-.66,2.44-2.48-.08-5.21-.22-10.43.05-15.63.16-3.18-.77-4.08-4-4.07-30.2.12-60.4.07-90.6.07H74.84C51.06.07,27.27.12,3.48,0,.69,0-.13.79,0,3.54.24,7.74.08,12,.08,16.17c0,6,0,6,5.83,6,5,0,4.45-.73,4.45,4.34q0,116.88,0,233.76c0,6,0,6-5.78,6.39-1.81.11-2.21.84-2.21,2.46s.2,2.74,2.29,2.7c3-.07,6,.21,8.94.22,19.69.06,39.39.14,59.08.1q83-.14,165.93-.35c9.62,0,19.25,0,28.87,0,1.88,0,3-.11,3-2.6s-1.33-2.57-3.11-2.52c-1.54.05-3.11-.14-4.64.05-2.59.31-3.09-.82-3.09-3.21q.12-47.71,0-95.43a6.65,6.65,0,0,1,1.07-4c3.41-5,6.57-10.25,10-15.27,1.28-1.86,1.12-2.92-.9-3.78s-2.19-2.1-.89-4C271.77,137.05,274.16,132.78,277,128.83ZM8.53,17c-2.8,0-3.49-.82-3.45-3.54.13-8.3,0-8.31,8.33-8.31q83.3,0,166.59-.07c3.24,0,4.36.63,4.22,4.12-.3,7.71-.09,7.7-7.78,7.7h-82v0C65.83,16.94,37.18,16.9,8.53,17Zm165,40c-1.27.38-1.94-.54-2.72-1-9.84-6.3-19.75-12.51-29.44-19-2.81-1.88-4.31-1.18-5.84,1.21-2.56,4-5.21,7.94-7.64,12-1.13,1.9-2.17,2.6-4,.94-1.59-1.47-2.69-1.19-3.83.76-2.28,3.9-4.83,7.65-7.27,11.46-4.58,7.15-4.63,7.55-1.88,15.53-4,0-8,0-12,0-1.49,0-1.86-.62-1.85-2q0-26.4,0-52.82c0-2.19,1.33-1.85,2.62-1.85h30.51c13.37,0,26.75.08,40.12-.07,2.69,0,3.27.8,3.24,3.34C173.48,36,173.56,46.51,173.56,57Zm-76.4,91.91c0-1.55-.31-3,2.21-3,15,.1,30,.05,45.82.05-5.15,8-9.91,15.43-14.66,22.85-6.66,10.4-13.36,20.79-19.94,31.26-1.12,1.79-2.28,2.73-4.48,2.51-2.83-.29-6.51,1.13-8.32-.56s-.59-5.44-.6-8.27C97.13,178.83,97.17,163.88,97.16,148.93Zm2.92-8c-2.3,0-3-.63-3-3,.13-8.53,0-17.05,0-25.58s.08-17,0-25.58c0-2.18.63-3.06,2.78-2.71a4.85,4.85,0,0,0,.66,0c6.19,0,12.75-1.23,18.46.44s10.53,6.23,15.72,9.57c9.57,6.13,19.08,12.35,28.69,18.41,1.75,1.11,2.17,1.84.93,3.72q-7.41,11.17-14.48,22.57a4.07,4.07,0,0,1-4,2.1C130.59,140.82,115.33,140.79,100.08,140.89ZM15.47,25.23c0-2.54.71-3.09,3.14-3.08q35.14.15,70.31,0c2.52,0,3.1.71,3.09,3.15q-.17,25.25,0,50.5c0,2.54-.72,3.14-3.16,3.11-11.72-.12-23.44-.06-35.16-.06s-23.21,0-34.82.05c-2.39,0-3.44-.33-3.41-3.16Q15.67,50.48,15.47,25.23ZM18.85,84c11.72.11,23.45,0,35.18,0s23.45,0,35.18,0c2.16,0,2.8.59,2.79,2.77q-.14,25.6,0,51.21c0,2.44-.86,2.9-3.06,2.89q-35.18-.1-70.36,0c-2.53,0-3.12-.73-3.11-3.18q.16-25.27,0-50.54C15.43,84.37,16.43,84,18.85,84Zm-3.39,65.33c0-2.85.84-3.45,3.53-3.42,11.61.15,23.22.06,34.84.07s23.44,0,35.17-.05c2.28,0,3,.56,3,2.93q-.15,25.44,0,50.86c0,2.44-.83,2.88-3,2.89q-35,.06-70,.37c-2.73,0-3.54-.66-3.52-3.46Q15.66,174.44,15.46,149.34ZM64.63,266.52q-23.05-.15-46.1,0c-2.59,0-3.09-.83-3.05-3.21.13-8.75,0-17.5,0-26.25s.06-17.5,0-26.25c0-2.15.55-2.87,2.75-2.86q19.41.14,38.81,0c2.1,0,3,.53,2.87,2.79-.17,2.87.09,5.77-.08,8.64-.13,2.23.46,3.1,2.88,3,5.06-.12,5.06,0,5.06,5,0,12-.07,23.93.06,35.89C67.86,265.9,67.08,266.54,64.63,266.52ZM67,217.15c-1.36,0-2.14-.35-2-1.84a1.82,1.82,0,0,0,0-.33c-.49-6.83-.49-6.83,6.42-6.83h33.83c-1.86,3-3.36,5.43-4.82,7.87a2.28,2.28,0,0,1-2.22,1.08Q82.6,217.09,67,217.15Zm25,27.18c0,6.53,0,13.06,0,19.59,0,1.81-.43,2.55-2.38,2.5-4.75-.12-9.5-.1-14.25,0-1.8,0-2.55-.44-2.54-2.4q.1-19.59,0-39.18c0-1.84.53-2.52,2.44-2.47,4.75.12,9.51.15,14.25,0,2.22-.08,2.51.86,2.48,2.73C91.9,231.49,92,237.91,92,244.33Zm24.5,19.9c0,1.48-.32,2.2-2,2.18-5.08-.09-10.16-.08-15.23,0-1.57,0-2.1-.5-2.09-2.08,0-13.7,0-27.39,0-41.09.58,2.52.81,5.11,1.73,7.59,2.69,7.23,8.09,11,15.51,12,1.49.21,2.08.51,2,2.13C116.37,251.4,116.39,257.82,116.45,264.23Zm54.16,2.29q-23-.15-46.07,0c-2.28,0-3.06-.59-3-2.95.15-6.42.11-12.84,0-19.26a3.24,3.24,0,0,1,2.16-3.53c3.3-1.51,5.63-4.16,7.57-7.21,4.89-7.74,9.91-15.4,14.75-23.17a4.58,4.58,0,0,1,4.54-2.45c6.73.15,13.47.13,20.21,0,2.15,0,2.82.61,2.79,2.81-.12,8.74,0,17.49,0,26.23s-.08,17.71,0,26.56C173.61,265.92,172.9,266.53,170.61,266.52Zm2.93-65.44c0,1.5-.67,1.86-2,1.86-6.6,0-13.21,0-20.62,0,7.54-11.78,14.76-23.08,22-34.37l.61.2C173.51,179.52,173.5,190.3,173.54,201.08Zm58.65,65.27q-15.57-.11-31.14,0c-1.89,0-2.46-.58-2.42-2.45.1-5.09.11-10.18,0-15.27,0-1.92.64-2.44,2.48-2.4,5.19.1,10.38,0,15.57,0s10.38.08,15.56,0c1.91,0,2.45.61,2.41,2.46-.11,5.09-.12,10.18,0,15.27C234.69,265.89,234,266.37,232.19,266.35Zm0-25.28c-5.19-.09-10.38,0-15.57,0s-10.16-.07-15.24,0c-1.87,0-2.8-.27-2.73-2.48.16-5.09.14-10.19,0-15.27-.06-2.1.73-2.61,2.68-2.6q15.4.1,30.81,0c1.77,0,2.58.39,2.53,2.38-.12,5.2-.12,10.41,0,15.6C234.7,240.69,233.94,241.11,232.15,241.07Zm-33.53-68.89c0-1.91.61-2.43,2.47-2.42q15.58.12,31.19,0c2,0,2.39.7,2.36,2.5-.1,5.1-.11,10.2,0,15.29.05,1.9-.57,2.49-2.44,2.45-5.2-.1-10.4,0-15.6,0s-10.17-.07-15.26,0c-1.89,0-2.79-.35-2.72-2.53C198.76,182.38,198.74,177.28,198.62,172.18Zm0,25c0-1.54.43-2.13,2.06-2.12q15.92.07,31.84,0c1.58,0,2.11.49,2.09,2.08-.07,5.42-.09,10.85,0,16.28,0,1.86-.77,2.21-2.38,2.18-5.2-.06-10.39,0-15.59,0s-10.4-.07-15.59,0c-1.9,0-2.49-.62-2.45-2.48C198.73,207.87,198.71,202.55,198.64,197.23Zm52.51,69.21a66.82,66.82,0,0,0-9,0c-1.92.08-2.44-.63-2.42-2.48.09-7.53,0-15.07,0-22.61,0-24.49,0-49,.05-73.47,0-2.55-.58-3.39-3.27-3.36q-20.07.21-40.15,0c-2.6,0-3.06.83-3,3.2.07,31.7,0,63.39.12,95.08,0,2.88-.6,4-3.61,3.64-3.58-.43-8.28,1.51-10.51-.75-2-2.09-.55-6.74-.56-10.26-.05-14.3,0-28.59,0-42.89,0-17,0-33.91,0-50.86,0-4.82,3.79-7.76,6.09-11.42.29-.46,1.64-.33,2.5-.33,10.62,0,21.23,0,31.85,0a7.4,7.4,0,0,1,4.32,1.28c7.3,4.76,14.69,9.4,22,14.17,2.26,1.47,4.53,2.83,7.29,2.78,1.39,0,1.74.56,1.65,1.76,0,.55,0,1.11,0,1.66,0,30.48,0,60.95.06,91.43C254.59,265.67,254,266.68,251.15,266.44Zm-62.75-122c2.35-3.72,4.49-7.12,6.64-10.5.66-1,1.39-.27,2,.09,5.11,3.27,10.2,6.58,16.1,10.41Zm75.12,6.17c-2.18,2.91-4,6.11-5.95,9.19-1.06,1.65-2.35,2.95-4.62,2.8-1.74.29-3-.88-4.41-1.76q-24.93-16-49.85-32c-4.77-3.06-4.77-3.06-7.75,1.59q-32.06,50.09-64.09,100.19c-2.79,4.36-6.45,6.74-11.71,6.67-8.63-.1-15.64-10.23-9.48-19.66,8.57-13.13,16.93-26.39,25.39-39.6,13.4-20.93,26.75-41.9,40.25-62.77,1.47-2.27,1.39-3.25-1-4.74-17.33-11-34.58-22.13-51.84-33.23-4.85-3.13-5.19-4.75-2.08-9.65,1.77-2.8,3.66-5.54,5.29-8.42,1.08-1.91,1.91-2,3.76-.77q41,26.49,82.18,52.82,27.45,17.62,54.91,35.23C264.53,147.74,265.08,148.58,263.52,150.64Zm-.56-10.8c-2.37.4-5.4-2.84-8.07-4.56q-60.6-38.94-121.21-77.83c-2.49-1.6-2.75-2.68-1-5a66.82,66.82,0,0,0,5.15-8.1c1.14-2.06,2.07-2,4-.78Q196.69,79,251.67,114.18q9.08,5.83,18.12,11.69c.68.44,1.71.65,1.7,1.82l-1.95,3.07c-.29.47-.58.94-.9,1.39C266.7,134.81,265.72,139.36,263,139.84ZM47.23,176a8.48,8.48,0,0,1-3.06-2.63c-1-1.05.22-1.58.75-2.12,3.4-3.48,6.92-6.85,10.26-10.38,1.46-1.54,2.25-.58,3.15.45s2.37,1.52.69,3.13c-3.58,3.44-7,7-10.56,10.53C48.07,175.32,47.62,175.63,47.23,176Zm17.29-.19c-.93,1.07-1.26,1.5-1.64,1.88C59.47,181.08,56,184.43,52.66,188c-1.54,1.65-2.28.69-3.38-.37s-1.79-2-.25-3.43c3.45-3.24,6.71-6.68,10.07-10,.58-.57,1.1-1.54,2.18-.75S63.4,175,64.52,175.77Zm-4.1-64.72c1.35.44,2,1.64,3,2.53s0,1.56-.58,2.13c-3.49,3.54-7.06,7-10.51,10.59-1.15,1.2-1.93.74-2.59-.29s-2.86-1.44-1.33-3.07c3.65-3.84,7.46-7.54,11.22-11.29A8.77,8.77,0,0,1,60.42,111.05Zm-.28-10.13c-.51.65-.8,1.11-1.17,1.49-3.49,3.52-7.06,7-10.47,10.56-1.43,1.51-2.17.61-3.15-.38s-2.1-1.87-.45-3.43c3.45-3.25,6.71-6.69,10.08-10,.56-.56,1.07-1.69,2.13-.92S59.08,100,60.14,100.92Zm3.78-48.38c-.37.41-.72.83-1.11,1.21-3.42,3.44-6.93,6.78-10.22,10.33-1.57,1.69-2.28.62-3.33-.41s-2-1.84-.35-3.36c3.54-3.31,6.88-6.82,10.31-10.24.59-.58,1.15-1.56,2.13-.54S63.41,51.17,63.92,52.54ZM60.36,38.78c-.86,1-1.26,1.5-1.72,2-3.35,3.38-6.81,6.65-10,10.14-1.54,1.66-2.29.73-3.37-.35s-1.94-1.9-.32-3.41c3.47-3.25,6.74-6.71,10.12-10,.56-.56,1.07-1.6,2.15-.79S59.28,37.93,60.36,38.78Zm67.75,75.75c-.85-1.13-1.68-2.17-2.44-3.25s.33-1.58.88-2.14c3.33-3.4,6.78-6.67,10-10.14,1.53-1.63,2.31-.7,3.44.37s1.82,1.91.25,3.37c-3.47,3.25-6.74,6.7-10.11,10.05C129.7,113.24,129.18,113.62,128.11,114.53Zm17.62-.38c-.54.64-.86,1.08-1.24,1.46-3.5,3.51-7.08,6.94-10.46,10.56-1.51,1.63-2.19.46-3.08-.47s-2.36-1.66-.56-3.33c3.54-3.3,6.86-6.84,10.31-10.23.47-.46.89-1.57,1.81-.88C143.64,112.11,144.63,113.15,145.73,114.15Zm104.2-98.56C242.79,13.76,238.24,9.23,236.5,2c-.4-1.63-1.3-2.07-2.85-2a2.18,2.18,0,0,0-2.46,2c-1.87,7.24-6.4,11.94-13.76,13.68a2.21,2.21,0,0,0-2,2.52c0,1.53.38,2.33,2.08,2.75,7.28,1.81,11.88,6.49,13.7,13.77.37,1.5,1,2.1,2.54,1.94,1.83.39,2.38-.74,2.78-2.34,1.8-7.06,6.39-11.46,13.33-13.31,1.62-.44,2.15-1,2.16-2.65A2.37,2.37,0,0,0,249.93,15.59Zm-8.81,3.66a29.51,29.51,0,0,0-7.37,7.66,28.56,28.56,0,0,0-8.46-8.53c3.3-2.52,6.25-5,8.34-8.63,2.42,3,4.68,5.81,7.76,7.79C242.5,18.25,241.81,18.79,241.12,19.25ZM276,65.63a8,8,0,0,1-6.44-6.37c-.36-1.51-1.14-2.36-2.67-2-1.29,0-2.19,0-2.52,1.58a8.25,8.25,0,0,1-6.79,6.86c-1.5.3-1.85,1.2-1.79,2.62s.18,2.22,1.83,2.56a8.19,8.19,0,0,1,6.68,6.59c.34,1.51,1,1.92,2.45,2s2.46-.43,2.79-2a7.94,7.94,0,0,1,6.35-6.48c1.72-.4,2-1.23,2.06-2.74A2.2,2.2,0,0,0,276,65.63Zm-7,2.74c-.14.88-1.31,1.59-2,2.4-.93-.9-2.28-1.48-2.17-2.51A2.43,2.43,0,0,1,267,66.21C267.94,66.27,269.16,67.32,269,68.37Z"/></svg>