<svg xmlns="http://www.w3.org/2000/svg" viewBox="0 0 291.19 293.41"><path d="M291.08,6.1c0-.95,0-1.89,0-2.84L288.06.08l-2.54,0H26.34c-.8,0-1.59,0-2.39,0a16.08,16.08,0,0,1-1.42,1.32c-1.73,1.26-2.13,2.9-2.13,5q.09,115.46.08,230.91a4,4,0,0,1-1.62,3.52c-3.6,2.91-7.1,6-10.57,9-1.6,1.42-3.35,2.79-4.27,4.76-2.71,5.8-4.38,11.86-3.95,18.33a12.71,12.71,0,0,0,3.54,8.49L12,289.74a11.68,11.68,0,0,0,5.55,3.08c5.12,1.28,10.07.28,15-1A21.74,21.74,0,0,0,44,284.71c3.64-4.3,7.36-8.53,10.87-12.94a3.41,3.41,0,0,1,3-1.44q113.76.06,227.52,0c.45,0,.9,0,1.35,0a1.53,1.53,0,0,0,1.32-.54c.88-.95,1.79-1.87,2.69-2.8,0-.4,0-.8,0-1.2.21-50.16-.22-100.33.26-150.5C291.36,78.93,291.08,42.51,291.08,6.1ZM86.57,6.64q45.81,0,91.62,0A3.62,3.62,0,0,1,181,7.81q23.73,23.79,47.54,47.51c1,.94.88,1.37,0,2.28Q205.8,80.25,183.13,103c-.91.92-1.35,1-2.3,0Q133.36,55.46,85.81,8c-.35-.34-.67-.71-1.24-1.32ZM58.18,168.19c3,9.92,6,19.88,9,29.82.1.33.3.64.13,1-.53-.1-.78-.57-1.12-.9q-19-19-38-38a2.82,2.82,0,0,1-1-2.19q0-46.25,0-92.49V64.31l.44-.25a12.72,12.72,0,0,0,1,1.28q31.36,31.39,62.78,62.73c1.05,1.05,1,1.52,0,2.51-10.63,10.55-21.17,21.17-31.81,31.69A5.29,5.29,0,0,0,58.18,168.19ZM63,206.33Q45.57,219.44,28.44,233c-.3.24-.62.45-1.09.79V169l.94.87Q45.65,187.2,63,204.54C63.69,205.21,64,205.59,63,206.33Zm5.24-41.64c4-3.92,8-7.93,12-11.94.68-.68,1.05-.73,1.77,0q29.33,29.38,58.72,58.71c.64.65.68,1,0,1.65-4.16,4.09-8.27,8.23-12.4,12.36-.24.24-.5.46-.79.72a5.2,5.2,0,0,1-.51-.38c-.23-.2-.43-.42-.64-.63q-29.06-29-58.11-58C67.33,166.16,67.28,165.66,68.27,164.69ZM87.6,147.36c-.8-.79-.78-1.19,0-2q20.08-20,40.1-40.11c.86-.85,1.25-.68,2,.07q4.81,4.92,9.74,9.73c.82.79.78,1.2,0,2-7.44,7.38-14.83,14.8-22.25,22.2a4.56,4.56,0,0,0-1.52,2.5,3.89,3.89,0,0,0,6,3.9,11.14,11.14,0,0,0,1.45-1.3q10.86-10.83,21.68-21.7c.83-.84,1.25-1,2.18-.07q11.79,11.92,23.7,23.71c.76.75.91,1.15.05,2-2.78,2.65-5.49,5.38-8.16,8.14-2.24,2.3-1.61,5.5,1.2,6.59a4.35,4.35,0,0,0,1.46.22,3.85,3.85,0,0,0,2.89-1.36c2.67-2.68,5.38-5.34,8-8.06.74-.76,1.16-.92,2-.06,3.29,3.4,6.66,6.74,10,10.06.71.69.84,1.07.06,1.85Q168.07,185.71,148,205.85c-.72.72-1.1.79-1.86,0Q116.9,176.58,87.6,147.36Zm82.45,47.4q13.38-13.29,26.69-26.65c2.35-2.34,2.34-4.3,0-6.66q-32.39-32.4-64.78-64.78a4,4,0,0,0-6.56,0q-13.43,13.45-26.86,26.91c-.79.78-1.2.93-2.07,0C91.27,118.31,86,113.1,80.78,107.91c-.68-.67-.71-1,0-1.71q23-22.94,45.94-45.94c.78-.77,1.17-.65,1.87.06q51,51,102.06,102c.76.77.69,1.14,0,1.86Q207.71,187,184.88,209.92c-.83.84-1.26.83-2.08,0q-6.33-6.48-12.82-12.8C168.94,196.11,169.16,195.64,170.05,194.76Zm17.86-84.67c-1-1-.89-1.46,0-2.38q22.76-22.65,45.41-45.39c.86-.87,1.29-.93,2.19,0Q259.36,86.2,283.26,110a2.84,2.84,0,0,1,1,2.19q0,46.24,0,92.48v1.16l-.53.38a8.71,8.71,0,0,0-.93-1.35Q235.35,157.47,187.91,110.09ZM28.79,6.61c7.49.06,15,0,22.45,0s14.77,0,22.15,0a3.16,3.16,0,0,1,2.49,1q22.94,23,45.93,45.92c.79.79.89,1.21,0,2.07Q99,78.37,76.23,101.21c-.9.9-1.32.84-2.18,0Q51.18,78.24,28.23,55.37a3,3,0,0,1-1-2.33q0-22.45,0-44.89C27.22,6.88,27.57,6.6,28.79,6.61Zm15.4,266c-1.87,2.28-3.86,4.44-5.7,6.73a13.27,13.27,0,0,1-7.1,4.66c-3.71,1-7.38,2.09-11.29,1.43a5.29,5.29,0,0,1-3-1.55,78,78,0,0,0-6.27-6.2c-2.92-2.36-3.39-5.37-3-8.72a50.25,50.25,0,0,1,1-5.12,16.91,16.91,0,0,1,5.85-9.57c9.81-8.25,19.85-16.21,30-24,9.9-7.66,19.87-15.22,29.81-22.81,2.4-1.84,2.77-2.89,1.9-5.77q-3-10.22-6.11-20.42c-.09-.28-.28-.54-.22-.63l42.73,42.71-7.18-2.14c-4.71-1.42-9.42-2.86-14.13-4.27-2.45-.74-3.7-.3-5.29,1.81C72.42,236.84,58.63,255,44.19,272.6Zm17.4-9.14c9-11.36,17.61-22.65,26.09-33.83l33.83,33.83Zm163.31.11q-45.83,0-91.63,0a3.68,3.68,0,0,1-2.85-1.22q-17.47-17.55-35-35.05c-.34-.34-.79-.6-.94-1.12.53-.34,1,0,1.41.16,9.81,2.93,19.63,5.84,29.41,8.86a5.14,5.14,0,0,0,5.79-1.41c10.65-10.73,21.37-21.39,32-32.11.76-.76,1.15-.87,2,0q30.35,30.42,60.74,60.78c.27.27.53.56,1.06,1.13Zm57.75,0q-22.36-.06-44.75,0a3,3,0,0,1-2.35-.95q-22.94-23-45.94-45.9c-.86-.86-.75-1.25,0-2q22.85-22.75,45.61-45.6c.92-.92,1.35-.79,2.2.06q22.82,22.89,45.71,45.7a3.31,3.31,0,0,1,1.07,2.62c0,7.38,0,14.76,0,22.14s0,15,0,22.44C284.25,263.33,283.86,263.6,282.65,263.59Zm1.91-163.85c0,.43-.05.86-.06,1.12L190.25,6.64h1.17q45.79,0,91.6,0c1.23,0,1.57.29,1.57,1.55Q284.53,54,284.56,99.74Z"/><path d="M223.22,59.33a2.42,2.42,0,0,1-2.6-2.46,2.48,2.48,0,0,1,2.45-2.63,2.57,2.57,0,0,1,2.71,2.57A2.49,2.49,0,0,1,223.22,59.33Z"/><path d="M184.54,98.48a2.58,2.58,0,0,1-5.15,0A2.56,2.56,0,0,1,182,95.87,2.51,2.51,0,0,1,184.54,98.48Z"/><path d="M195.62,109.53a2.58,2.58,0,0,1-5.15.07,2.56,2.56,0,0,1,2.62-2.65A2.52,2.52,0,0,1,195.62,109.53Z"/><path d="M237,66.9a2.56,2.56,0,0,1-2.56,2.58,2.72,2.72,0,0,1-2.6-2.59,2.64,2.64,0,0,1,2.69-2.63A2.52,2.52,0,0,1,237,66.9Z"/><path d="M118.9,54.89a2.49,2.49,0,0,1-2.46,2.62,2.54,2.54,0,0,1-2.63-2.63,2.5,2.5,0,0,1,2.57-2.53A2.42,2.42,0,0,1,118.9,54.89Z"/><path d="M77.8,96.51a2.67,2.67,0,0,1-2.53,2.63A2.57,2.57,0,1,1,75,94,2.65,2.65,0,0,1,77.8,96.51Z"/><path d="M194.94,218.88a2.58,2.58,0,0,1-.08-5.15,2.58,2.58,0,1,1,.08,5.15Z"/><path d="M236.29,171a2.69,2.69,0,0,1,2.65,2.65,2.62,2.62,0,0,1-5.24.05A2.69,2.69,0,0,1,236.29,171Z"/><path d="M183.91,202.66a2.58,2.58,0,1,1-.17,5.15,2.61,2.61,0,0,1-2.48-2.66A2.58,2.58,0,0,1,183.91,202.66Z"/><path d="M86.32,105.1a2.61,2.61,0,0,1,2.56,2.58,2.68,2.68,0,0,1-2.63,2.54,2.61,2.61,0,0,1-2.61-2.68A2.57,2.57,0,0,1,86.32,105.1Z"/><path d="M227.6,163.55a2.55,2.55,0,1,1-5.09,0,2.48,2.48,0,0,1,2.55-2.54A2.43,2.43,0,0,1,227.6,163.55Z"/><path d="M127.47,67.5A2.53,2.53,0,0,1,125,64.83a2.62,2.62,0,0,1,5.23.18A2.54,2.54,0,0,1,127.47,67.5Z"/><path d="M32.45,267.06a6.22,6.22,0,0,1-6.35,6,6.31,6.31,0,0,1-6-6.39,6.19,6.19,0,0,1,6.39-6A6.11,6.11,0,0,1,32.45,267.06Z"/></svg>