<svg xmlns="http://www.w3.org/2000/svg" viewBox="0 0 233 300"><path d="M91.9,0h55.4a6.21,6.21,0,0,1,6.21,6.21V146l77.66,77.67a6.18,6.18,0,0,0-4.38-1.82h-15l-68.9-68.89a6.22,6.22,0,0,1-1.81-4.39V12.41h-43V6.21A6.21,6.21,0,0,0,91.9,0ZM226.79,234.24h-15L161.75,284.3l-18.92-18.93-8.78,8.78,12.72,12.72h15a6.2,6.2,0,0,1,4.4,10.58l65-65A6.17,6.17,0,0,1,226.79,234.24ZM106.35,286.87h15l12.71-12.72,8.78-8.78L174,234.24h-2.57a6.21,6.21,0,0,1,0-12.42H174L98.11,146V6.21A6.21,6.21,0,0,0,91.9,0H10.26a6.21,6.21,0,0,0-6.2,6.21V186.64a6.2,6.2,0,0,0,1.6,4.16l11,12.19L23,191.51l-6.55-7.26V12.41H85.7V148.54a6.22,6.22,0,0,0,1.81,4.39L162.62,228l-56,56-8.82-9.78c-.26.43-.49.87-.76,1.29a54.34,54.34,0,0,1-6.92,8.73l11.67,12.92.11.11a6.2,6.2,0,0,1,4.49-10.47Zm105.46-65.05H171.39a6.21,6.21,0,0,0,0,12.42h55.4a6.17,6.17,0,0,0,4.38-1.81,6,6,0,0,0,.79-1c.09-.13.15-.29.23-.43a6.48,6.48,0,0,0,.34-.64c.07-.18.12-.39.18-.58a5.54,5.54,0,0,0,.17-.58,6.39,6.39,0,0,0,.11-1.09s0-.08,0-.12,0-.08,0-.12a6.49,6.49,0,0,0-.11-1.09,5.54,5.54,0,0,0-.17-.58c-.06-.19-.11-.39-.18-.58s-.22-.43-.34-.64-.14-.29-.23-.43a6,6,0,0,0-.79-1,6.18,6.18,0,0,0-4.38-1.82Zm-50.06,65.05h-55.4a6.2,6.2,0,0,0-4.49,10.47c.16.17.34.31.51.46s.27.24.41.34a5.54,5.54,0,0,0,.62.36c.15.08.29.17.44.24a5.63,5.63,0,0,0,.69.24l.48.15a5.05,5.05,0,0,0,.68.08,4.93,4.93,0,0,0,.66.07h55.4a5,5,0,0,0,2-.36l.39-.12a5.85,5.85,0,0,0,.82-.44c.08-.05.17-.08.24-.13a6.46,6.46,0,0,0,1-.78,6.2,6.2,0,0,0-4.4-10.58Zm-71.67-2.56A51.59,51.59,0,0,1,53,300h-.65a51.87,51.87,0,0,1-43.9-24.42,53.44,53.44,0,0,1-3.21-52c0-.11.11-.22.17-.33L16.66,203,23,191.51,47.3,147.64a6.21,6.21,0,0,1,10.86,0L100,223.28l.16.33a53.35,53.35,0,0,1-2.44,50.68c-.26.43-.49.87-.76,1.29A54.34,54.34,0,0,1,90.08,284.31Zm-3.57-15.38a41,41,0,0,0,2.57-39.8L52.73,163.46,16.38,229.13A41.1,41.1,0,0,0,19,268.93a39.57,39.57,0,0,0,33.49,18.66h.5A39.57,39.57,0,0,0,86.51,268.93ZM35.24,233.46A6.21,6.21,0,1,0,24,228.18a43.62,43.62,0,0,0,2.7,42,6.22,6.22,0,0,0,5.26,2.9,6.13,6.13,0,0,0,3.3-1,6.22,6.22,0,0,0,2-8.56A31.24,31.24,0,0,1,35.24,233.46Z"/></svg>