<svg xmlns="http://www.w3.org/2000/svg" viewBox="0 0 268.17 291.16"><path d="M167.73,263c-3.72-3.31-6.86-6-9.92-8.84-2.72-2.48-3.06-5.05-1.07-7.15,1.81-1.9,4.49-1.81,7,.39,4.56,3.92,9.07,7.91,13.81,12.06.52-1.37-.3-1.92-.74-2.51-2.85-3.9-5.81-7.72-8.62-11.66-1.83-2.55-1.5-5.18.6-6.72s4.71-1,6.65,1.35c1.42,1.75,2.73,3.57,4.58,6,0-3,0-5,0-7,0-3.51,1.4-5.44,4.19-5.57s4.35,1.53,4.72,4.8c.27,2.4.34,4.82.52,7.23a29.94,29.94,0,0,0,1.17,7.25l2.76-13.54a27.14,27.14,0,0,1,.74-3.21,4.2,4.2,0,0,1,5.1-3.11,4,4,0,0,1,3.53,4.76c-.45,3.48-1.27,6.91-1.87,10.37-.21,1.15-.71,2.32-.14,3.8,2.3-.74,4.56-1.52,6.85-2.2,2.69-.8,4.83-.05,6,2.62,1,2.43-.25,4.82-3.13,6-2.23.88-4.52,1.6-7.39,2.6,3.5,3.09,6.61,5.82,9.69,8.58,2.79,2.49,3.29,5.32,1.36,7.41s-4.42,1.92-7.25-.52c-3.55-3.05-7.07-6.14-10.6-9.21l-.79.63,6.19,9.39c2.82,4.27,2.84,6.82,0,8.55-2.62,1.62-4.84.55-7.63-3.54-.85-1.24-1.44-2.7-3.22-4,0,2.71,0,5.05,0,7.39-.07,3.15-1.75,5.14-4.3,5.23s-4.54-1.8-4.69-4.91c-.23-4.38-.16-8.79-.28-13.18,0-1.16.29-2.38-.51-3.78-1.15,1.37-1,3-1.35,4.36-1,4.51-1.79,9.05-2.77,13.56-.71,3.31-2.85,4.95-5.46,4.38s-4-2.9-3.4-6.13c.67-3.56,1.4-7.11,2.13-10.66.37-1.76-.06-2.54-2-1.9-2.2.73-4.22,1.33-5,4.1a8.56,8.56,0,0,1-5.67,5.61c-30.32,11.31-59.68,11.74-87.29-7.75-7.47-5.27-15.24-10-24-13-12.44-4.27-24-2.75-34.64,5.15a19.42,19.42,0,0,1-1.89,1.33c-2.31,1.36-4.53,1.16-6.14-1a4.19,4.19,0,0,1,.81-6.18c7.51-6.06,15.89-10.18,25.71-10.76,13.72-.8,25.5,4.69,36.86,11.47,2.83,1.69,5.59,3.5,8.25,5.45,18,13.18,38,16.22,59.52,12.46a82.9,82.9,0,0,0,15.26-4c1-.39,3.12-.18,2.51-2.22-.69-2.29-2.22-.53-3.18-.22-17.19,5.61-34.52,7.43-52.17,2.2a69.65,69.65,0,0,1-20.48-10.38c-8.36-5.93-17.15-11.12-26.9-14.47-14.45-5-28.31-4.14-41.37,4.29a13.57,13.57,0,0,1-1.42.84c-2.48,1.21-4.84,1.12-6.33-1.4s-.73-4.7,1.62-6.29c8.38-5.62,17.51-9.12,27.68-9.55,15.7-.66,29.43,5.21,42.54,13,3.4,2,6.73,4.18,9.93,6.5,14.27,10.34,30.24,12.89,47.31,10.53a85.14,85.14,0,0,0,19.43-5c3.75-1.46,7.31-1.34,10.64,1C162.61,266,164.57,263.53,167.73,263Z"/><path d="M268.11,183c-.1-17.77-3-35-10.85-51.15s-19.54-27.55-37.18-32a146.36,146.36,0,0,0-18.14-3.27c-3.27-.41-4.05-1.65-4-4.79.12-28.14.07-56.28.07-84.42,0-6-1.27-7.29-7.39-7.29H18.46c-5.92,0-7.1,1.2-7.1,7.16q0,52.76,0,105.52t0,105.52c0,5.93,1.18,7.11,7.15,7.11H190.62c6.09,0,7.35-1.26,7.35-7.34v-67.6c0-.88,0-1.76,0-2.64,0-1.23.47-1.68,1.8-1.63a11.94,11.94,0,0,1,11.45,11.78q0,39.74,0,79.47c0,16.5,12.31,29.44,28.21,29.55,15.75.11,28.52-12.86,28.6-29.2C268.15,219.45,268.23,201.21,268.11,183ZM43,9.13l6.6,0h55.06c20,0,40,.05,60,0,2.91,0,3.8.47,2.27,3.33a13.05,13.05,0,0,0-1.16,6.42c0,3.3.11,6.6-.05,9.89-.19,3.8-1.82,5.29-5.59,5.47-.77,0-1.54,0-2.31,0H51.34c-6.68,0-8-1.4-8.06-8.15-.07-5.12.86-10.37-1.62-15.25C40.91,9.3,41.88,9.13,43,9.13Zm145.82,6.23V211.89c0,4.3,0,4.31-4.27,4.31H25c-4.5,0-4.51,0-4.51-4.48q0-98.76,0-197.52c0-5.12,3.48-7.07,8-4.33,3.66,2.23,6.14,5.25,5.92,9.92a92.38,92.38,0,0,0,0,9.56c.49,8.51,5.93,13.8,14.47,13.93,8.9.13,17.81,0,26.71,0h82.76c11.15,0,16.61-5.48,16.59-16.61,0-2.31,0-4.62,0-6.92,0-6.91,4.65-11.12,11.57-10.7,1.66.1,2.42.61,2.32,2.33C188.75,12.72,188.83,14.05,188.83,15.36Zm14.63,106.26a28.86,28.86,0,0,0-3.37,12.93c0,.8.26,2-1,2s-1-1.22-1-2.06q0-13.49,0-27c0-1.2.2-2.34,1.76-2.11,6,.91,12.08,1.58,18.71,3.42C211.65,111.75,206.63,115.66,203.46,121.62Zm14.3,20.79c-1.51,1.76-2.22,1.47-4.11.37-5.25-3.06-5-7.58-3.85-12.3a17.69,17.69,0,0,1,28-10.19c4.63,3.5,7.55,8.39,10.53,14.07-3.33-.58-5.84-1.33-8.47-1.43C231,132.6,223.55,135.66,217.76,142.41Zm8.74,4.06c5.79-4.92,12.43-5.95,19.37-2.84,9.3,4.16,10.88,12.66,11.77,22-14-8.33-20.77-8.17-36.89.64C219.67,158.67,220.32,151.72,226.5,146.47Zm13,111.28a19.4,19.4,0,0,1,.23-38.8,19.7,19.7,0,0,1,19.34,19.4A19.4,19.4,0,0,1,239.5,257.75Zm-12.17-58.27a19.34,19.34,0,0,1,22.72-1.37c6.44,4.1,10.22,12.29,8.45,18.63-12.41-9.08-24.88-9.24-37.33-.19C218.81,212.38,222.45,203.39,227.33,199.48Zm31.21-6.67c-12.48-9.23-25.06-9.28-37.61-.08a19.53,19.53,0,0,1,8.1-20.9,19.24,19.24,0,0,1,22,.49C257.34,176.9,260.55,185.44,258.54,192.81Z"/><path d="M134.06,21.72a34,34,0,0,1-.33,4.76A4.44,4.44,0,0,1,125,26a67.28,67.28,0,0,1,0-8.52,4.18,4.18,0,0,1,4.22-4.22c2.52-.15,4.15,1.32,4.63,3.77A35.19,35.19,0,0,1,134.06,21.72Z"/><path d="M146.58,21.62c0,1.42.12,2.85,0,4.26a4.29,4.29,0,0,1-4.27,4.19,4.06,4.06,0,0,1-4.51-3.49,28.24,28.24,0,0,1,0-9.79,4.08,4.08,0,0,1,4.46-3.56,4.28,4.28,0,0,1,4.33,4.13A37.81,37.81,0,0,1,146.58,21.62Z"/><path d="M158.51,21.68a36.8,36.8,0,0,1,0,4.58,4.38,4.38,0,0,1-8.64.26,30.08,30.08,0,0,1-.07-9.47,4.1,4.1,0,0,1,4.55-3.81,4.15,4.15,0,0,1,4.21,4.18c.12,1.42,0,2.84,0,4.26Z"/><path d="M54.05,18.31a4.39,4.39,0,1,1-4.5,4.21A4.29,4.29,0,0,1,54.05,18.31Z"/><path d="M66.33,18.31a4.23,4.23,0,0,1,4.51,4.19,4.39,4.39,0,1,1-8.77.24A4.22,4.22,0,0,1,66.33,18.31Z"/><path d="M104.46,57.89c-38.83,0-70.53,31.83-70.39,70.56s32,70.56,70.67,70.4a70.48,70.48,0,0,0-.28-141Zm-.13,131.86A61.37,61.37,0,1,1,104.86,67a61.37,61.37,0,0,1-.53,122.73Z"/><path d="M154.11,144.53c-7.27-4.16-8.3-19.12-2.66-25.91a11.16,11.16,0,0,1,2.75-2.32c3.84-2.36,4.34-3.65,2.78-7.8a55.8,55.8,0,0,0-52.51-36.19C69,72.21,42.68,104.7,49.72,139.82c4.81,24.05,24.68,41.82,50.6,44.34,21.88,2.13,44.91-9.81,55.37-32.74C157,148.64,156.88,146.11,154.11,144.53Zm-10,2.91c1.64,2.09,1.78,3.51.4,5.73A47,47,0,0,1,58.13,135c-4-28.57,18.25-54.15,50.15-53.62,14.88.66,28.73,8.84,37.85,24.94,1.19,2.12,1.13,3.48-.68,5.4C137,120.73,136.35,137.5,144.13,147.44Z"/></svg>