<svg xmlns="http://www.w3.org/2000/svg" viewBox="0 0 227.27 283.95"><path d="M109.2,284c-4.38-1.82-8.91-3.3-12.29-6.94-2.39-2.58-2.85-5.18-.92-7.31s4.72-2.25,7.31.25c6.43,6.2,14.93,5.34,20,.6a9.94,9.94,0,0,0,3.34-5.48c-5.79,0-11.41,0-17,0-3.17,0-5.19-1.76-5.35-4.43-.19-3,1.73-5,5.2-5.07,6.93-.1,13.87,0,20.8-.06a15.74,15.74,0,0,0,3.29-.3,4.53,4.53,0,0,0-.57-8.94c-1.45-.18-2.95,0-4.43-.08-3.27-.13-5.38-2-5.42-4.75s1.93-4.62,5.26-4.88c1.65-.13,3.33,0,5-.25a4.21,4.21,0,0,0,3.73-4.65,4.16,4.16,0,0,0-3.91-4.26c-1.46-.19-3,0-4.43-.11-3.46-.14-5.62-2-5.62-4.86s2.1-4.67,5.6-4.87c.83-.05,1.67,0,2.5,0,4.92-.07,7.42-3.56,6-8.22-.32-1-1-.93-1.72-.93-2.22,0-4.44.05-6.66,0-3.51-.14-5.64-2-5.69-4.78s2.18-4.88,5.81-4.94c4.06-.06,8.13,0,12.19,0,3.79,0,5.41-1.55,5.57-5.32.12-2.86.09-5.73,0-8.6a24.14,24.14,0,0,1,8.91-20,63.72,63.72,0,0,0,16.63-20.51c11.51-23.34,10.21-46.17-4.28-67.67-12-17.81-29.3-27.73-50.83-28.81-28.55-1.44-52.69,14-64.36,40.11-10.9,24.42-4.18,56.09,15.7,74,1.16,1,2.31,2.12,3.5,3.15a23.86,23.86,0,0,1,8.62,19.29c0,2.95-.07,5.91,0,8.87.13,3.93,1.75,5.48,5.67,5.5,8.69,0,17.37,0,26.06,0,3.7,0,6,1.83,6.08,4.7s-2.24,4.91-6,5c-.56,0-1.11,0-1.67,0-5.54,0-11.09-.11-16.63.08-1.34.05-3.76-1.51-4,1.69-.33,4.43,1,6.91,4,7.29a28.19,28.19,0,0,0,3.32.1c5.17,0,10.35-.08,15.52.05,3.28.08,5.39,2.09,5.44,4.76s-2.15,4.87-5.56,4.93c-5.73.09-11.46,0-17.19,0-3.52,0-5.4,1.6-5.45,4.48s1.76,4.64,5.25,4.7c5.73.09,11.46,0,17.19.07,4.34.08,6.77,3.15,5.36,6.57-1,2.37-3,3.07-5.4,3.07-5.82,0-11.64,0-17.46,0-2.84,0-4.59,1.51-4.88,3.91-.34,2.72.88,4.39,3.77,5.17l1.34.35c2.84.69,4.35,2.73,4,5.37a4.54,4.54,0,0,1-5.09,4,13.68,13.68,0,0,1-12.09-7.53,13.27,13.27,0,0,1,.57-14.18c.93-1.45,1.08-2.28.08-3.82-3.27-5-3.19-10.26,0-15.36.6-.95,1.38-1.68.42-2.91-2.48-3.15-3.07-6.86-2.84-10.73a3.92,3.92,0,0,0-2.33-4.33c-4.65-2.52-6.91-6.79-7.11-12-.12-3.14-.11-6.29,0-9.42A15.23,15.23,0,0,0,65.42,172a78.81,78.81,0,0,1-16-18.31,74.07,74.07,0,0,1-10.88-49.27c3-23.57,14.7-41.82,34.55-54.77a73.6,73.6,0,0,1,33.41-11.43C138.79,35,170.54,54,183.1,84.15c10.45,25.06,8,49.17-6.85,71.95a71.27,71.27,0,0,1-13.88,15.38,15.9,15.9,0,0,0-6.08,13.6c.14,2.85.06,5.73,0,8.59-.11,5.73-2.61,10.13-7.68,12.86a2.75,2.75,0,0,0-1.78,3c.25,4.33-.18,8.51-3,12.07-.69.86-.13,1.5.35,2.21,3.61,5.43,3.61,10.89-.07,16.28a2,2,0,0,0,0,2.67c5.16,7.93,2.77,16.77-5.65,20.9a3.46,3.46,0,0,0-2,2.4c-2.62,9.51-8.73,15.34-18.39,17.42-.21.05-.37.33-.56.51Zm-.43-261.18c.12,3.54,1.94,5.54,4.86,5.54s4.8-2,4.86-5.54q.14-8.6,0-17.19c0-3.51-2-5.58-4.85-5.58s-4.74,2.08-4.86,5.59c-.09,2.86,0,5.73,0,8.59S108.68,19.91,108.77,22.77ZM22.93,118.38c3.51-.14,5.56-2,5.51-4.91s-2.18-4.7-5.68-4.73q-8.46-.08-16.92,0c-3.49,0-5.69,1.83-5.83,4.65s2.06,4.88,5.73,5c2.77.1,5.54,0,8.32,0C17,118.4,20,118.49,22.93,118.38Zm181.37-9.64c-3.31.07-5.39,1.9-5.48,4.67s1.88,4.85,5.17,4.93q9,.21,18,0c3.27-.08,5.34-2.22,5.25-4.9s-2.24-4.62-5.5-4.7c-2.86-.07-5.72,0-8.59,0S207.26,108.67,204.3,108.74ZM55.21,21.85c2.93,5.43,6,10.76,9.23,16a4.71,4.71,0,0,0,6.67,1.88c2.28-1.33,3-4.08,1.5-6.77-3-5.31-6-10.56-9.1-15.82A5.05,5.05,0,0,0,59.4,14.5C55.56,14.45,53.3,18.31,55.21,21.85ZM162.4,38.44c3.38-5.7,6.75-11.41,9.93-17.22a4.57,4.57,0,0,0-1.81-6,4.31,4.31,0,0,0-6.13,1.22c-3.53,5.71-7,11.5-10.09,17.45-1.62,3.1.95,6.6,5.06,6.55A4,4,0,0,0,162.4,38.44ZM15,57.47a4.44,4.44,0,0,0,2,5.74c5.44,3.28,10.92,6.49,16.51,9.5a4.61,4.61,0,0,0,6.91-3.11,4.81,4.81,0,0,0-2.59-5.33Q29.94,59.68,22,55.15a13.29,13.29,0,0,0-2.29-.83C17.29,54.49,15.71,55.43,15,57.47ZM205,55.3c-5.11,2.93-10.24,5.82-15.3,8.85-2.95,1.76-3.72,4.52-2.2,7,1.4,2.29,4.22,2.83,7.07,1.21,4.89-2.77,9.73-5.6,14.58-8.43a9.65,9.65,0,0,0,2.21-1.63,4.37,4.37,0,0,0,.87-5.11A4.63,4.63,0,0,0,208,54.36,6.17,6.17,0,0,0,205,55.3ZM22,172c5.37-3,10.74-6.09,16-9.27a4.76,4.76,0,1,0-4.75-8.24c-3,1.58-5.92,3.37-8.86,5.09-2.63,1.53-5.31,3-7.82,4.68a4.27,4.27,0,0,0-1.66,5.36c.75,2.07,2.35,3,4.77,3.18A12.16,12.16,0,0,0,22,172Zm165.1-15.13a4.5,4.5,0,0,0,2,5.76c5.46,3.25,10.95,6.44,16.51,9.51a4.44,4.44,0,0,0,5.79-1c2.1-2.25,1.66-5.58-1.21-7.33-5.35-3.25-10.82-6.31-16.26-9.41a11.23,11.23,0,0,0-2.18-.74C189.44,153.87,187.79,154.85,187.09,156.85Zm-32-36.83a19.15,19.15,0,0,1-16.51,12.45,58.35,58.35,0,0,1-7.48,0c-2.45-.19-3.26.47-3.24,3.11.14,15.33.07,30.67.07,46,0,.64,0,1.29,0,1.94-.13,3.53-1.87,5.62-4.73,5.69s-4.92-2-5-5.71c-.09-5.45,0-10.9,0-16.35,0-10.72,0-21.43,0-32.15,0-1.84-.36-2.55-2.4-2.55-6.8,0-6.8-.06-6.8,6.7v43c0,4.84-1.66,7.18-5,7.1s-4.74-2.34-4.74-7.07q0-11.5,0-23c0-8-.08-16.07.06-24.11,0-2.15-.64-2.68-2.66-2.56a71.75,71.75,0,0,1-7.76,0C78.69,132,70.34,122.76,71,112.68A18.9,18.9,0,0,1,91.24,94.75c10.51.81,17.54,8.66,17.8,19.92,0,2.12.09,4.25,0,6.37-.08,1.62.59,2,2.1,2,7.08.2,7.12.25,7.07-7-.06-8.37,2.72-15.17,10.42-19.3,6.75-3.63,14.95-2.6,21.16,2.58C155.54,104.14,157.68,112.41,155.13,120ZM99.26,117.2c0-1.38.06-2.77,0-4.15a9.28,9.28,0,0,0-18.43-1c-.72,5.16,2.18,9.5,7,10.63a23.63,23.63,0,0,0,5.5.39C99.29,123,99.29,123,99.26,117.2Zm47.35-3.68A9.46,9.46,0,0,0,139,104.3,9.56,9.56,0,0,0,128.63,110c-.93,2.22-.56,4.54-.65,6.44s0,3.52,0,5.09c0,1,.28,1.57,1.41,1.53,3.31-.15,6.64.34,9.92-.38A9.12,9.12,0,0,0,146.61,113.52Z"/></svg>