<svg xmlns="http://www.w3.org/2000/svg" viewBox="0 0 292.49 180.95"><path d="M292.39,16.49c-.07-3.8-2.22-5.88-6-5.9q-25-.11-50.1,0c-3.41,0-5.13,1.62-5.83,5.07-.54,2.68-.91,5.4-1.34,8.11q-6,36.84-11.86,73.68c-.48,3-.93,5.63-4.89,5.64a9.3,9.3,0,0,0-3.85,1.34c-2.21,1.12-4.06,1.56-6.33-.32s-5.47-2.16-8.46-1.29c-2.11.63-4.17,1.47-6.23,2.27-1,.39-2,.92-3,.09-4.88-4-10-3.09-15.12-.62-2.07,1-3.72,1.3-5.75-.32a9.5,9.5,0,0,0-8.75-1.41,31.49,31.49,0,0,0-5,1.81c-2,1-3.54,1.21-5.48-.34a9.44,9.44,0,0,0-8.73-1.49,42.79,42.79,0,0,0-5.92,2.17,3.78,3.78,0,0,1-4.33-.45,10.24,10.24,0,0,0-9.92-1.5c-2,.67-4,1.42-5.9,2.23-1.51.64-2.41.41-2.68-1.35-1.25-8-2.53-16-3.85-24.34,1.33.55,2.37.94,3.38,1.42,7,3.33,14.09,6.7,21.15,10,4.65,2.19,7,1.38,9.16-3.19q4.65-9.69,9.21-19.44c2-4.31,1.09-6.84-3.28-9-4.83-2.34-9.71-4.61-14.57-6.91Q73.79,26.83,19.47,1.15C18.05.48,16.62-.25,14.94.08a5,5,0,0,0-4.42,4.34c-.5,3.24,1.31,5.05,4.07,6.35Q49.21,27.08,83.8,43.46c16.11,7.62,32.2,15.27,48.34,22.82,1.86.87,2.35,1.68,1.3,3.54A54.19,54.19,0,0,0,130.05,77c-.87,2.29-1.86,2.52-4.07,1.46Q81.36,57.17,36.66,36.09,22.5,29.4,8.34,22.74C5,21.19,1.8,22.18.51,25s0,5.82,3.3,7.49c.37.19.76.35,1.14.53,16.4,7.74,32.78,15.53,49.22,23.19a5.12,5.12,0,0,1,3.29,4.45c.78,5.85,1.78,11.67,2.72,17.5,3.52,21.86,7.3,43.67,10.52,65.57s19.14,36.9,41.17,37.05q49.62.34,99.24,0c20.87-.13,36.53-13,40.4-33.61,3.59-19.05,6.34-38.26,9.44-57.41q3.29-20.3,6.48-40.6c.32-2.06,1.2-2.69,3.3-2.61,5.17.17,10.36.08,15.53,0,3.9,0,6.05-1.84,6.12-5.69Q292.6,28.7,292.39,16.49ZM112.07,115.71a4.67,4.67,0,0,0,2.07-.72c2.84-1.7,5.27-1.71,8.29.27,3.62,2.39,7.77,1.29,11.5-.48,2.61-1.24,4.71-1.64,7.44.26,3.83,2.65,8.13,1.53,12.07-.31,2.51-1.18,4.49-1.67,7.15.23,3.78,2.7,8.1,1.67,12.07-.15,2.58-1.18,4.68-1.78,7.44.21,3.67,2.64,7.93,1.61,11.78-.14,2.71-1.23,4.89-2,7.73.21s6.41,1.61,9.72.55c1.58-.51,3.11-1.2,5.16-2-1.13,7.13-2.15,13.86-3.3,20.56-.42,2.45.17,5.76-1.62,7.13s-5.08.43-7.71.43c-28.5,0-57,0-85.51.09-2.73,0-3.56-.81-3.89-3.44-.79-6.16-1.95-12.27-3-18.4C109.09,117.79,108.94,115.83,112.07,115.71ZM278.9,35.92c-8.24-.09-16.49,0-24.73,0-2.88,0-4.94,1.33-5.71,4.08a5,5,0,0,0,2.25,5.8,4.41,4.41,0,0,0,3.3.83c2.76-.46,2.95.84,2.57,3.13-2.46,14.87-4.8,29.76-7.21,44.64-2.65,16.34-5.44,32.65-8,49-2.47,16-13.89,26.53-30.31,26.64q-49.62.3-99.24,0c-16.36-.11-27.69-10.48-30.3-26.73q-6.31-39.34-12.66-78.68a5.23,5.23,0,0,1,.19-1.12C76.12,66.79,83,70,89.8,73.22c1.38.64,1.64,1.78,1.84,3.07q5.7,35.43,11.43,70.87c.6,3.73,2.42,5.35,6.19,5.35q52.32,0,104.63,0c3.79,0,5.5-1.51,6.2-5.75,2-12.38,4-24.77,6-37.16q4.91-30.43,9.85-60.88c1.35-8.32,2.79-16.63,4-25,.28-1.91.93-2.44,2.77-2.43q18.23.09,36.46,0c1.95,0,2.61.61,2.53,2.53-.11,3.17-.15,6.35,0,9.51C281.8,35.56,280.85,35.94,278.9,35.92Z"/></svg>