<svg xmlns="http://www.w3.org/2000/svg" viewBox="0 0 216.19 268.21"><path d="M216.19,229.22c0-1.69-.67-3.31-2.21-3.68-2.39-.57-2.12-2.13-2.12-3.81q0-91.87,0-183.75c0-3.88,0-7.75,0-11.62,0-3.06-1.61-4.61-4.69-4.64-4.32,0-8.65-.09-13,0a5.74,5.74,0,0,1-4.12-1.54q-9.9-8.37-19.91-16.62c-7.7-6.33-17.83-4-22,5a4,4,0,0,1-2.21,2.11c-10.64,4.83-16.2,13-16.21,24.79q0,69.59,0,139.17c0,1,0,2,0,3-.5,5.43-3,9.43-8.6,11.81,0-15.77,0-31.08,0-46.39a21.27,21.27,0,0,0-15.76-21,3.07,3.07,0,0,1-2.56-2.84Q97.21,87.45,91.59,55.74a2.19,2.19,0,0,1,1.08-2.65c2.87-1.85,5.69-3.78,8.56-5.65a5.12,5.12,0,0,0,2.57-4.7c-.07-7.39,0-14.77-.06-22.16C103.58,9.83,94,.23,83.22.11q-14-.15-28.1,0C44.37.24,34.76,9.86,34.62,20.6c-.1,7.38,0,14.77,0,22.16a5.1,5.1,0,0,0,2.59,4.68c2.71,1.76,5.37,3.62,8.09,5.37,1.24.79,1.82,1.48,1.48,3.22-1.65,8.55-3.06,17.15-4.56,25.73q-3.3,18.84-6.61,37.68a2.69,2.69,0,0,1-2.25,2.48c-10,2.82-16,11-16,21.4,0,20.36-.07,40.72.08,61.07,0,2.87-.84,3.49-3.44,3.28-2.87-.22-5.76-.06-8.64,0-3.82,0-5.29,1.42-5.29,5.14Q0,237.9,0,263c0,3.61,1.47,5.1,5,5.12,5.05,0,10.1-.11,15.13.05,3.13.1,5.23-.92,6-4.25,4.64,3.47,9.82,4.3,15.38,4.26q26.36-.21,52.7,0c6.34,0,12.55-.05,17.88-4.2,1.41,3.56,2.25,4.15,5.7,4.15,5.14,0,10.27,0,15.41,0,3.59,0,5.1-1.49,5.11-5q0-25.28,0-50.53c0-3.42-1.52-4.91-4.94-4.94s-7,0-10.54,0c-.73,0-1.78.34-1.78-1,0-2.43,0-4.86,0-7.29,0-1.11,1-.87,1.56-1.08,10.28-3.54,15.7-11.11,15.7-22V37.37c0-1.08,0-2.17,0-3.24.51-6,3-10.74,8.6-14.19v3c0,11.89.1,23.78-.07,35.67a7.22,7.22,0,0,0,3.66,6.86c11.23,7.32,22.35,14.82,33.53,22.22A3.42,3.42,0,0,1,186,90.92q-.09,65.93,0,131.87c0,1.31-.17,2-1.64,2.47a3.78,3.78,0,0,0-2.71,3.93c0,11.53,0,23.06,0,34.59,0,2.73,1.66,4.34,4.42,4.36q12.84.06,25.67,0c2.77,0,4.45-1.62,4.46-4.33C216.22,252.28,216.19,240.75,216.19,229.22ZM15,259.56c-6.3-.05-6.3,0-6.3-6.27V237.64c0-6.39.06-12.77,0-19.16,0-1.77.49-2.25,2.25-2.25,6.44,0,6.44-.08,6.44,6.39,0,11.52-.05,23,0,34.55C17.36,259.07,16.84,259.57,15,259.56ZM55.68,8.84c9-.24,18-.27,27,0C88,9,91.9,11.91,94.19,17.33H44.59C45.4,12.84,50,9,55.68,8.84ZM43.09,32.27c.7-6.18.15-6.24,6.4-6.24h20c7.74,0,15.48.08,23.21-.06,2.08,0,2.59.58,2.5,2.57-.16,3.5-.09,7,0,10.52,0,1.29-.18,2.3-1.47,2.83a1.46,1.46,0,0,0-.43.32c-4.15,3.7-8.29,4.67-14,2.62C71,41.89,62.37,43.06,54.18,46.21c-1.46.57-2.39.19-3.7-.39C44.47,43.16,42.35,38.9,43.09,32.27Zm1.76,85C48.39,97.11,52,77,55.49,56.81a3,3,0,0,1,2.2-2.62,33.64,33.64,0,0,1,23,0,2.92,2.92,0,0,1,2.21,2.61C86,74.93,89.24,93,92.45,111.15c.47,2.65.91,5.31,1.47,7.94.31,1.46.09,2.06-1.62,2.1-6.06.17-6.18.25-7.08-5.8q-3.28-22.12-6.33-44.27C78,64.73,75,61,70,60.64a9.07,9.07,0,0,0-10,7.82c-1.53,9.76-2.89,19.55-4.3,29.32-1,6.85-2.15,13.68-2.79,20.55-.34,3.69-2.62,2.74-5.3,2.82C44.25,121.15,44.17,121.13,44.85,117.26Zm28.68,3.89c-3.33,0-6.66-.11-10,0-1.9.09-2.22-.59-2-2.28,1.17-7.91,2.23-15.83,3.37-23.73s2.35-16,3.55-24a1.72,1.72,0,0,1,1-1.68c1.12,3.7,1.28,7.37,1.82,11,1.86,12.33,3.54,24.7,5.34,37C77.17,121.16,77.24,121.15,73.53,121.15ZM26.31,140c1.51-5.95,6.3-10.16,12.63-10.19q30.25-.14,60.5,0c6.52,0,11.38,4.44,12.73,10.74.43,2-.23,2.22-1.94,2.22-13.78-.05-27.55,0-41.33,0-13.41,0-26.83-.05-40.24,0C26.41,142.83,25.68,142.51,26.31,140ZM41.25,259.54c-9.78.24-15.3-5.12-15.3-15q0-26.36,0-52.69v-3.13c5.72,2.86,10.92,5.49,16.16,8.05A2,2,0,0,1,43.25,199q0,29.33,0,58.64C43.28,259.21,42.71,259.51,41.25,259.54Zm71.17-49.49q0,17.43,0,34.85c0,9.37-5.4,14.61-14.82,14.66-2,0-2.53-.52-2.52-2.53.09-15.13,0-30.26,0-45.39,0-4.14,0-8.29,0-12.43,0-.88-.15-1.77.92-2.3,5.3-2.6,10.59-5.25,16.37-8.13Zm0-55.84q-.21,11.07,0,22.15a3.59,3.59,0,0,1-2.45,3.83c-6.72,3.23-13.32,6.71-20,9.94a5.54,5.54,0,0,0-3.54,5.68c.07,20.35,0,40.7.08,61.05,0,2.06-.44,2.73-2.63,2.7q-14.72-.18-29.44,0c-2.24,0-2.61-.72-2.6-2.73.06-20.26,0-40.52.09-60.78A6,6,0,0,0,48.15,190c-6.8-3.27-13.51-6.74-20.31-10a3.08,3.08,0,0,1-1.93-3.33c.08-7.56.11-15.13,0-22.69,0-2,.45-2.57,2.51-2.56,13.68.1,27.37.06,41.06.06,13.41,0,26.83.06,40.24-.06C112,151.34,112.51,152,112.47,154.21Zm11,62c6.29.05,6.3,0,6.3,6.27v15.39c0,6.47-.07,13,0,19.43,0,1.78-.51,2.24-2.26,2.24-6.43,0-6.43.08-6.43-6.4,0-11.51,0-23,0-34.54C121,216.7,121.54,216.21,123.42,216.22Zm62.5-138.5c-1.06.43-1.56-.41-2.16-.81-8.77-5.79-17.5-11.65-26.28-17.43A3.59,3.59,0,0,1,155.61,56c.1-8.53,0-17.07,0-26.18C165.75,36.57,175.31,43,184.89,49.3a2.11,2.11,0,0,1,1.05,2C185.91,60.1,185.92,68.91,185.92,77.72Zm0-42.44a25.65,25.65,0,0,0,0,4.18l-16-10.7q-6.28-4.19-12.57-8.37c-2.09-1.41-2.4-7-.54-9.49s4.93-2.87,7.59-.7c5.44,4.44,10.59,9.26,16.26,13.36C184.86,26.63,186.89,30.11,186,35.28Zm8.57,127.19c0-1.81.35-2.47,2.33-2.46,6.36.05,6.36,0,6.36,6.21,0,18.72,0,37.44,0,56.16,0,1.92-.34,2.63-2.46,2.6-6.23-.1-6.23,0-6.23-6.09V192.43C194.57,182.45,194.61,172.46,194.53,162.47Zm8.72-13.15c0,1.62-.38,2.13-2.08,2.14-6.6.06-6.6.13-6.6-6.5,0-8.63.05-17.27,0-25.9,0-1.72.42-2.28,2.22-2.28,6.47,0,6.47-.08,6.47,6.36v11.07C203.22,139.24,203.16,144.28,203.25,149.32Zm-5.75-119c5.72.15,5.72,0,5.72,5.77V69.56c0,12,0,23.94,0,35.91,0,2-.26,2.83-2.57,2.77-6.12-.14-6.12,0-6.12-6.19,0-23,.05-45.9-.06-68.86C194.49,30.72,195.21,30.23,197.5,30.3Zm10,216.47c0,3.69,0,7.37,0,11.06,0,1.28-.38,1.72-1.68,1.7-4.67-.06-9.35-.07-14,0-1.37,0-1.63-.55-1.62-1.75,0-7.47.05-14.93,0-22.4,0-1.4.39-1.87,1.82-1.84q6.89.12,13.76,0c1.5,0,1.79.57,1.77,1.9C207.5,239.21,207.54,243,207.54,246.77Zm-147-4.72a8.65,8.65,0,1,1,8.55,8.81A8.5,8.5,0,0,1,60.54,242.05Zm15.32-71.37c-2.12-1.12-2.6-2.39-2.36-4.43a17,17,0,0,0,0-1.89c0-4.3,0-4.3-4.18-4.3-4.47,0-4.47,0-4.47,4.55a7.3,7.3,0,0,0,0,.81c.37,2.51-.31,4.12-2.82,5.52-5,2.84-7.08,9.07-5.36,14.55,1.83,5.84,6.77,9.3,13.09,9.16a12.84,12.84,0,0,0,12-9.87A12.47,12.47,0,0,0,75.86,170.68ZM69,186a4.29,4.29,0,1,1,4.49-4.16A4.55,4.55,0,0,1,69,186Z"/></svg>