<svg xmlns="http://www.w3.org/2000/svg" viewBox="0 0 271.98 281.01"><path d="M266.59,251a119.83,119.83,0,0,0-8.86-8.75c-3.23-2.67-4-5.75-4-9.81.14-37.19.08-74.38.08-111.57q0-57.49,0-115c0-4.5-1.38-5.88-5.9-5.88H42.3c-4.7,0-6,1.32-6,6.06V96.11c0,.66,0,1.33,0,2,.12,1.24-.41,1.66-1.63,1.62-2.07-.07-4.15,0-6.23,0-6.41-.07-11,2.77-13.68,8.61-2.46,5.43-1.2,11.26,3.25,15.85,2.43,2.51,4.94,4.95,7.4,7.42.65.66,1.46,1.22,1.3,2.36-.68,4.75-1.33,9.51-2,14.26a1.74,1.74,0,0,1-.5,1c-5,4.05-6.93,10-9.64,15.46A136.67,136.67,0,0,0,0,227.05a281.43,281.43,0,0,0,2.46,35.54C3.93,273.82,12.23,281,23.54,281c13.41,0,26.81,0,40.21,0A17.87,17.87,0,0,0,81.47,265.1c.22-2.15,1-2.3,2.75-2.3q71.35.06,142.72,0a5,5,0,0,1,3.93,1.68c3.66,3.81,7.41,7.53,11.19,11.22,7.2,7,18,7.08,24.88.17S273.64,258.19,266.59,251ZM48.43,9q96.7.13,193.4,0c2.31,0,3,.5,3,2.91q-.11,107-.07,214.06a4.08,4.08,0,0,1-.53,2.87c-2.75-2.85-5.42-5.59-8.06-8.36-.89-.94-.44-2.17-.44-3.25q0-96.13,0-192.26c0-5.85-1-6.85-6.92-6.85H60.85c-5.28,0-6.43,1.17-6.43,6.48,0,24.07,0,48.14,0,72.21,0,2.36-.59,3-2.95,2.94-6.16-.16-6.17,0-6.17-6.17q0-40.64,0-81.27C45.3,9.92,45.66,9,48.43,9ZM24.71,117.86c-1.62-1.64-2.57-3.47-1.55-5.85s3-3.25,5.44-3.25H54.08c8.4,0,16.79,0,25.19,0,1.83,0,2.38.47,2.38,2.34,0,6.76,0,7.17-6.68,6.65a26.17,26.17,0,0,0-17.3,4.76c-7.06,4.82-14.85,4.65-22.77,4.44a3.31,3.31,0,0,1-2.39-1.24C29.92,123.06,27.3,120.48,24.71,117.86Zm55.6,31.59a38.9,38.9,0,0,1-18.6-17.39c-.25-.46-.74-1.05.08-1.38,3.08-1.27,5.65-3.73,9.24-3.82,1.17,0,1.74.37,1.87,1.52A53.93,53.93,0,0,0,80.31,149.45ZM41.55,145H41a5.23,5.23,0,0,1-.56,0c-1.91-.21-5.2.76-5.48-.47-.56-2.48.4-5.32.84-8,.14-.92,1-.57,1.64-.58a38,38,0,0,0,4.78-.07c3-.49,4,.75,4.31,3.63C47,145,47.18,145,41.55,145ZM10.83,205.72c2.67-16.55,8.78-31.85,16.75-46.48a9.61,9.61,0,0,1,8.58-5.11c4.62-.16,9.24-.11,13.86,0,3.28.05,4.7,2,4,5.21-1.3,6.54-2.57,13.09-3.9,19.63a16.23,16.23,0,0,0,9.14,18.22c2.47,1.14,5,2.09,7.55,3.13A8.86,8.86,0,0,1,72,205.62c.76,2,.61,2.93-2,2.89-9.52-.15-19-.06-28.57-.06-9.33,0-18.67-.07-28,.05C11.18,208.53,10.46,208,10.83,205.72Zm-1.21,36.5c-.07-7.44-.93-14.87-.27-22.33.18-2,.83-2.44,2.73-2.42,9.72.1,19.44.05,29.15.05s19.25.06,28.88-.05c2,0,2.51.58,2.48,2.53-.12,7.45-.1,14.91,0,22.36,0,1.81-.43,2.39-2.33,2.39q-29-.1-58,0C10.27,244.75,9.64,244.21,9.62,242.22Zm63,14.44c-.2,1.86,0,3.77,0,5.65-.14,5.72-3.92,9.51-9.69,9.57-6.6.07-13.2,0-19.81,0-6.41,0-12.83,0-19.24,0-6.76,0-10.9-3.54-12.09-10.21-.19-1-.29-2.05-.38-3.08-.46-4.83-.45-4.83,4.57-4.83,17.92,0,35.85,0,53.77-.06C72,253.7,72.85,254.28,72.58,256.66ZM70.92,192c-2.3-1.08-4.73-1.87-7.06-2.87-3.81-1.63-5.36-4.59-4.57-8.61,1.3-6.56,2.64-13.1,3.91-19.66A12.72,12.72,0,0,0,59,148.1c-2.58-2.27-2.86-2.89-2.81-6.75.86-.06,1,.73,1.38,1.21,9,11.93,21.08,18.51,35.78,20.49,2.48.33,4.79.1,6-2.55,1.1-2.46.07-4.34-1.73-6-6-5.66-11.39-11.77-13.93-19.93-2.4-7.7-2.46-8.11,5.37-7.53,6.6.49,11.85-2.23,17.25-5.1a4.49,4.49,0,0,0,2.53-4.38c0-2.83-.06-5.66,0-8.49a4.75,4.75,0,0,0-2.75-4.55c-5.64-3.16-11.33-5.46-18.15-4.93-7.32.56-14.71.07-22.08.16-1.79,0-2.29-.43-2.44-2.31a9.38,9.38,0,0,1,3.28-8.12c10.15-9.87,20.06-20,30.13-29.95,1.35-1.33,1.54-2.09.07-3.53-4.85-4.75-4.79-4.82-9.51-.1L65.93,77.14c-.64.64-1.32,1.25-2.45,2.3,0-17.28,0-33.89,0-50.5,0-1.34.42-1.78,1.77-1.77q24.92,0,49.83,0c.33,1.07-.58,1.37-1,1.84-3.84,3.9-7.69,7.79-11.62,11.61-1.09,1.06-1.27,1.68-.09,2.9,5,5.2,5,5.25,10.09.14,4.94-4.94,9.92-9.84,14.8-14.83a5,5,0,0,1,3.92-1.7q46.44.08,92.88,0c2.1,0,2.7.49,2.67,2.64-.12,9.81-.09,19.63,0,29.45A5,5,0,0,1,225,63.15c-10.52,10.44-20.95,21-31.49,31.39-1.56,1.54-1.66,2.36,0,3.92,4.69,4.48,4.61,4.56,9.09.07l21.63-21.62c.64-.64,1.33-1.23,2.27-2.1V211.26c-1.65-1.82-2.71-3.1-3.88-4.27q-11.9-11.94-23.84-23.82c-1.19-1.18-2-1.93-.4-3.57,1.84-1.95,1.54-4.25-.42-6.32s-4.06-4.23-6.22-6.2c-1.33-1.21-1.44-2,0-3.32,5.42-5.25,10.72-10.63,16-16,7.3-7.34,7.26-16.35-.07-23.72-1.47-1.47-2.92-3-4.41-4.4-2.69-2.58-4.91-2.56-7.62,0-3,2.89-3,2.89-6.07-.13-1.6-1.6-3.15-3.25-4.81-4.79-2.24-2.07-4.57-2.07-6.8,0-1.26,1.14-2.42,2.39-3.62,3.6L107,185.6c-3.87,3.87-3.87,5.57,0,9.42,1.8,1.8,3.55,3.65,5.42,5.39,1,.93,1,1.6,0,2.49a22.8,22.8,0,0,0-2.57,2.63c-1.32,1.63-1.71,3.7-.36,5.22,3.55,4,6.81,8.47,12.11,10.36,6.17,2.19,11.74.89,16.42-3.67q8.42-8.19,16.6-16.63c1.36-1.4,2.18-1.55,3.53,0,1.86,2.12,3.94,4.07,6,6,2.29,2.19,4.39,2.37,6.77.35,1.13-1,1.7-1,2.72.07,9.25,9.31,18.55,18.56,27.8,27.8-.43,1-1.2.6-1.77.6q-57.76,0-115.54.06c-1.93,0-2.56-.43-2.53-2.47q.16-12.45,0-24.92C81.49,200.66,77.77,195.25,70.92,192Zm19.75-78.78c0-5.32.71-5.75,5.52-3.37.84.42,1.72.78,2.52,1.26,1.26.77,1.56,3.32.37,4.05a22.69,22.69,0,0,1-5.31,2.53c-1.85.55-3.61.28-3.12-2.5A11.76,11.76,0,0,0,90.67,113.24ZM145.48,197q-6.71,6.69-13.4,13.41c-2.12,2.13-4.57,3-7.46,2a6.88,6.88,0,0,1-4.19-3.6c-.59-1.47,1.47-2.34,2.47-3.34q36.87-37,73.82-73.86c3-3,3.29-3,5.8.49a7.42,7.42,0,0,1,1.41,3.84,8.69,8.69,0,0,1-3,5.67Q173.19,169.26,145.48,197Zm43.25-20.8c-.95,1.06-1.29,1.49-1.68,1.87-6,6-12,12-18,18-1.24,1.27-1.88.86-2.91-.16-3.34-3.3-3.38-3.26-.16-6.47,5.2-5.2,10.46-10.35,15.56-15.64,1.5-1.55,2.47-1.83,3.94,0A16.25,16.25,0,0,0,188.73,176.19Zm-68.78,19c-1.38-1.46-2.82-2.8-4-4.32-.91-1.15.52-1.64,1.08-2.2q31.26-31.35,62.56-62.67c1.42-1.43,2.32-1.51,3.5.06a8.66,8.66,0,0,0,1.6,1.6c1.19,1,1.32,1.69.11,2.89q-31.65,31.56-63.24,63.19C121.14,194.13,120.72,194.49,120,195.19Zm99.4,58.58h-2.74q-65.94,0-131.88.07c-2.67,0-3.26-.79-3.18-3.28.17-5.85,0-5.85,5.91-5.85q60.42,0,120.85,0a5.67,5.67,0,0,1,4.68,1.9c2.1,2.29,4.42,4.38,6.64,6.55Zm39.14,17a7.7,7.7,0,0,1-8.3-.31,15.33,15.33,0,0,1-2.56-2.21q-33.45-33.42-66.93-66.83c-1.72-1.71-1.67-2.6.07-4.14a103,103,0,0,0,7.61-7.6c1.45-1.61,2.32-1.68,3.93-.05,13.28,13.42,26.66,26.73,40,40.08q13.62,13.62,27.25,27.22a10.12,10.12,0,0,1,3.28,6.82A8.4,8.4,0,0,1,258.49,270.78ZM191.25,58.85a21.25,21.25,0,0,1-13.61-15.46c-.32-1.27-.57-2.58-1-3.82a4.45,4.45,0,0,0-4.4-3.32c-2.79,0-4.11,1.37-5.06,5.74-1.78,8.16-6.3,14-14.21,16.95-2.14.81-3.47,2.19-3.41,4.63s1.36,3.62,3.39,4.36c7.74,2.84,12.22,8.48,14.13,16.36.22.91.4,1.84.66,2.74.66,2.22,2.05,3.58,4.47,3.59a4.39,4.39,0,0,0,4.5-3.54c.28-.9.46-1.82.68-2.74,1.87-7.89,6.39-13.51,14.09-16.4,2.14-.8,3.48-2.19,3.41-4.63S193.37,59.69,191.25,58.85Zm-12,5.53A26.57,26.57,0,0,0,173.23,71c-.73,1.14-1.26,1.14-2,0a25.28,25.28,0,0,0-6.05-6.62c-.94-.71-.92-1.23,0-1.93a26.88,26.88,0,0,0,6.06-6.61c.53-.79,1-1.45,1.81-.21a28.36,28.36,0,0,0,6.43,7,3.93,3.93,0,0,1,.53.56C180.1,63.88,179.63,64.11,179.28,64.38ZM159.56,99.65a21.23,21.23,0,0,1-13.63-15.44c-.32-1.28-.57-2.58-1-3.83A4.38,4.38,0,0,0,140.85,77a4.47,4.47,0,0,0-4.64,3,26.41,26.41,0,0,0-.92,3.55c-1.89,7.79-6.43,13.29-14,16.15-2.14.81-3.49,2.16-3.44,4.61s1.49,3.65,3.62,4.47a21.18,21.18,0,0,1,13.63,15.44c.31,1.27.57,2.58,1,3.82a4.61,4.61,0,0,0,8.83.11,32.94,32.94,0,0,0,.82-3.29c1.9-7.78,6.42-13.29,14-16.15,2.14-.8,3.49-2.16,3.44-4.6S161.68,100.48,159.56,99.65Zm-12.12,5.61a25.78,25.78,0,0,0-5.85,6.43c-.82,1.27-1.34,1.26-2.15,0a25.19,25.19,0,0,0-5.86-6.41c-.76-.59-1.3-1.1-.21-1.92a27.47,27.47,0,0,0,6.26-6.82c.47-.71.93-1.27,1.63-.21a29.49,29.49,0,0,0,6.63,7.24,4.35,4.35,0,0,1,.57.76C148.1,104.66,147.79,105,147.44,105.26Z"/></svg>